<?xml version="1.0" encoding="UTF-8" standalone="no"?>
<!DOCTYPE svg PUBLIC "-//W3C//DTD SVG 1.1//EN" "http://www.w3.org/Graphics/SVG/1.1/DTD/svg11.dtd">
<svg version="1.1" xmlns="http://www.w3.org/2000/svg" xmlns:xlink="http://www.w3.org/1999/xlink" preserveAspectRatio="xMidYMid meet" viewBox="0 0 640 640" width="640" height="640"><defs><path d="M262.85 103.39L264.14 103.57L265.42 103.81L266.67 104.12L267.89 104.49L269.08 104.93L270.25 105.42L271.38 105.97L272.48 106.58L273.54 107.24L274.57 107.95L275.56 108.71L276.51 109.53L277.41 110.38L278.27 111.29L279.08 112.23L279.84 113.22L280.56 114.25L281.22 115.31L281.82 116.41L282.37 117.55L282.87 118.71L283.3 119.91L283.67 121.13L283.98 122.38L284.22 123.65L284.4 124.95L284.51 126.26L284.54 127.6L284.51 128.93L284.4 130.25L284.22 131.54L283.98 132.82L283.67 134.07L283.3 135.29L282.87 136.48L282.37 137.65L281.82 138.78L281.22 139.88L280.56 140.95L279.94 141.84L280.2 141.84L280.2 549.23L279.71 549.23L279.49 549.9L278.52 551.93L277.27 553.76L275.75 555.39L273.95 556.83L271.88 558.06L269.54 559.09L266.92 559.92L264.03 560.55L260.86 560.99L257.42 561.22L254.03 561.21L251.01 560.91L248.36 560.32L246.09 559.44L244.18 558.28L242.65 556.82L241.48 555.08L240.69 553.05L240.27 550.73L240.24 549.23L240.2 549.23L240.2 141.84L240.45 141.84L239.83 140.95L239.17 139.88L238.57 138.78L238.02 137.65L237.52 136.48L237.09 135.29L236.72 134.07L236.41 132.82L236.17 131.54L235.99 130.25L235.88 128.93L235.85 127.6L235.88 126.26L235.99 124.95L236.17 123.65L236.41 122.38L236.72 121.13L237.09 119.91L237.52 118.71L238.02 117.55L238.57 116.41L239.17 115.31L239.83 114.25L240.55 113.22L241.31 112.23L242.12 111.29L242.98 110.38L243.89 109.53L244.83 108.71L245.82 107.95L246.85 107.24L247.91 106.58L249.01 105.97L250.14 105.42L251.31 104.93L252.5 104.49L253.73 104.12L254.98 103.81L256.25 103.57L257.54 103.39L258.86 103.29L260.2 103.25L261.53 103.29L262.85 103.39Z" id="bGjxvEye4"></path><linearGradient id="gradienthdtbwNUPb" gradientUnits="userSpaceOnUse" x1="260.2" y1="103.25" x2="260.2" y2="561.22"><stop style="stop-color: #da0606;stop-opacity: 1" offset="0%"></stop><stop style="stop-color: #e0abab;stop-opacity: 1" offset="100%"></stop></linearGradient></defs><g><g><g><use xlink:href="#bGjxvEye4" opacity="1" fill="url(#gradienthdtbwNUPb)"></use><g><use xlink:href="#bGjxvEye4" opacity="1" fill-opacity="0" stroke="#79717f" stroke-width="0" stroke-opacity="1"></use></g><g></g></g></g></g></svg>